<svg xmlns="http://www.w3.org/2000/svg" viewBox="0 0 598.103 56.918"><title>lbdtndDatový zdroj 2</title><path d="M3.477,13.233H24.524c14.275,0,24.1,8.114,24.1,21.352S38.8,55.937,24.524,55.937H3.477ZM23.914,44.712c6.039,0,10.188-3.6,10.188-10.127S29.953,24.458,23.914,24.458H17.875V44.712Z" transform="translate(-3.477 0.005)" fill="#2c3d4f"/><path d="M56.729,34.585c0-12.933,10.188-22.328,24.1-22.328s24.1,9.4,24.1,22.328-10.188,22.328-24.1,22.328S56.729,47.518,56.729,34.585Zm33.675,0c0-6.649-4.27-10.676-9.578-10.676s-9.577,4.027-9.577,10.676,4.27,10.676,9.577,10.676S90.4,41.234,90.4,34.585Z" transform="translate(-3.477 0.005)" fill="#2c3d4f"/><path d="M152.868,55.937l-.122-19.461-9.273,15.617h-6.344l-9.273-14.946v18.79H114.74v-42.7h11.835l13.909,22.754,13.543-22.754h11.835l.122,42.7Z" transform="translate(-3.477 0.005)" fill="#2c3d4f"/><path d="M177.509,13.233h14.4v42.7h-14.4Z" transform="translate(-3.477 0.005)" fill="#2c3d4f"/><path d="M245.526,13.233v42.7H233.691l-16.227-19.4v19.4H203.433v-42.7h11.835l16.228,19.4v-19.4Z" transform="translate(-3.477 0.005)" fill="#2c3d4f"/><path d="M257.051,13.233h14.4v42.7h-14.4Z" transform="translate(-3.477 0.005)" fill="#2c3d4f"/><path d="M300.362,41.783l-3.233,3.6V55.937H282.976v-42.7h14.153v15.5l14.031-15.5h15.678L309.757,32.022l17.935,23.915H311.038Z" transform="translate(-3.477 0.005)" fill="#2c3d4f"/><path d="M352.148,50.568l7.748-9.151c2.257,2.807,4.392,4.21,6.771,4.21,2.989,0,4.637-1.83,4.637-5.308V24.092h-14.52V13.233h28.734V39.465c0,11.713-6.162,17.448-17.63,17.448C361.238,56.913,355.687,54.717,352.148,50.568Z" transform="translate(-3.477 0.005)" fill="#2c3d4f"/><path d="M424.862,48.494H408.636l-2.867,7.443H391.127l18.668-42.7h14.152l18.668,42.7H427.729ZM420.9,38.123l-4.148-10.737L412.6,38.123Z" transform="translate(-3.477 0.005)" fill="#2c3d4f"/><path d="M491.6,13.233v42.7H479.763l-16.227-19.4v19.4H449.505v-42.7H461.34l16.226,19.4v-19.4Z" transform="translate(-3.477 0.005)" fill="#2c3d4f"/><path d="M532.222,48.494H516l-2.867,7.443H498.486l18.668-42.7h14.153l18.668,42.7H535.089ZM526.976,9.756h-9.151L525.878,0h13.115Zm1.281,28.367-4.149-10.737L519.96,38.123Z" transform="translate(-3.477 0.005)" fill="#2c3d4f"/><path d="M574.25,41.783l-3.233,3.6V55.937H556.864v-42.7h14.153v15.5l14.031-15.5h15.679L583.645,32.022,601.58,55.937H584.926Z" transform="translate(-3.477 0.005)" fill="#2c3d4f"/></svg>