<svg xmlns="http://www.w3.org/2000/svg" viewBox="0 0 532.223 56.918"><title>lbltnnDatový zdroj 4</title><path d="M3.477,13.233H24.524c14.275,0,24.1,8.114,24.1,21.352S38.8,55.937,24.524,55.937H3.477ZM23.914,44.712c6.039,0,10.188-3.6,10.188-10.127S29.953,24.458,23.914,24.458H17.875V44.712Z" transform="translate(-3.477 0.005)" fill="#304c60"/><path d="M51.239,34.585c0-12.933,10.188-22.328,24.1-22.328s24.1,9.4,24.1,22.328-10.188,22.328-24.1,22.328S51.239,47.518,51.239,34.585Zm33.675,0c0-6.649-4.27-10.676-9.578-10.676s-9.578,4.027-9.578,10.676,4.271,10.676,9.578,10.676S84.914,41.234,84.914,34.585Z" transform="translate(-3.477 0.005)" fill="#304c60"/><path d="M141.888,55.937l-.122-19.461-9.273,15.617h-6.344l-9.273-14.946v18.79H103.76v-42.7H115.6L129.5,35.987l13.543-22.754h11.835l.122,42.7Z" transform="translate(-3.477 0.005)" fill="#304c60"/><path d="M161.039,13.233h14.4v42.7h-14.4Z" transform="translate(-3.477 0.005)" fill="#304c60"/><path d="M223.566,13.233v42.7H211.731L195.5,36.537v19.4H181.473v-42.7h11.835l16.228,19.4v-19.4Z" transform="translate(-3.477 0.005)" fill="#304c60"/><path d="M229.6,13.233H244v42.7H229.6Z" transform="translate(-3.477 0.005)" fill="#304c60"/><path d="M267.422,41.783l-3.233,3.6V55.937H250.036v-42.7h14.153v15.5l14.031-15.5H293.9L276.817,32.022l17.935,23.915H278.1Z" transform="translate(-3.477 0.005)" fill="#304c60"/><path d="M308.229,50.568l7.747-9.151c2.258,2.807,4.393,4.21,6.772,4.21,2.989,0,4.636-1.83,4.636-5.308V24.092H312.865V13.233H341.6V39.465c0,11.713-6.161,17.448-17.63,17.448C317.319,56.913,311.767,54.717,308.229,50.568Z" transform="translate(-3.477 0.005)" fill="#304c60"/><path d="M375.453,48.494H359.226l-2.867,7.443H341.717l18.668-42.7h14.153l18.668,42.7H378.32Zm-3.965-10.371-4.149-10.737-4.148,10.737Z" transform="translate(-3.477 0.005)" fill="#304c60"/><path d="M436.7,13.233v42.7H424.863l-16.227-19.4v19.4H394.605v-42.7H406.44l16.227,19.4v-19.4Z" transform="translate(-3.477 0.005)" fill="#304c60"/><path d="M471.832,48.494H455.605l-2.867,7.443H438.1l18.668-42.7h14.153l18.667,42.7H474.7ZM466.585,9.756h-9.15L465.488,0H478.6Zm1.282,28.367-4.149-10.737L459.57,38.123Z" transform="translate(-3.477 0.005)" fill="#304c60"/><path d="M508.37,41.783l-3.234,3.6V55.937H490.984v-42.7h14.152v15.5l14.031-15.5h15.679L517.765,32.022,535.7,55.937H519.045Z" transform="translate(-3.477 0.005)" fill="#304c60"/></svg>