<svg xmlns="http://www.w3.org/2000/svg" viewBox="0 0 666 110"><title>lbltddKreslicí plátno 1</title><path d="M33.821,36.379H54.868c14.275,0,24.1,8.113,24.1,21.351s-9.821,21.352-24.1,21.352H33.821ZM54.258,67.857c6.039,0,10.187-3.6,10.187-10.127S60.3,47.6,54.258,47.6h-6.04V67.857Z" fill="#304c60"/><path d="M87.073,57.73c0-12.933,10.188-22.327,24.1-22.327s24.1,9.394,24.1,22.327-10.188,22.329-24.1,22.329S87.073,70.663,87.073,57.73Zm33.675,0c0-6.649-4.27-10.675-9.578-10.675s-9.578,4.026-9.578,10.675,4.271,10.676,9.578,10.676S120.748,64.38,120.748,57.73Z" fill="#304c60"/><path d="M183.211,79.082l-.121-19.461-9.273,15.617h-6.344L158.2,60.293V79.082H145.083v-42.7h11.835l13.91,22.754,13.543-22.754h11.835l.122,42.7Z" fill="#304c60"/><path d="M207.853,36.379h14.4v42.7h-14.4Z" fill="#304c60"/><path d="M275.87,36.379v42.7H264.035l-16.227-19.4v19.4H233.777v-42.7h11.835l16.227,19.4v-19.4Z" fill="#304c60"/><path d="M287.4,36.379h14.4v42.7H287.4Z" fill="#304c60"/><path d="M330.706,64.929l-3.233,3.6V79.082H313.319v-42.7h14.154v15.5l14.031-15.5h15.678L340.1,55.168l17.935,23.914H341.382Z" fill="#304c60"/><path d="M382.492,73.714l7.747-9.151c2.258,2.806,4.393,4.209,6.772,4.209,2.989,0,4.636-1.83,4.636-5.307V47.238H387.128V36.379h28.733V62.61c0,11.713-6.161,17.449-17.63,17.449C391.582,80.059,386.03,77.862,382.492,73.714Z" fill="#304c60"/><path d="M455.206,71.64H438.979l-2.867,7.442H421.471l18.668-42.7h14.152l18.668,42.7H458.073Zm-3.965-10.371-4.148-10.737-4.149,10.737Z" fill="#304c60"/><path d="M521.941,36.379v42.7H510.106l-16.226-19.4v19.4H479.849v-42.7h11.835l16.226,19.4v-19.4Z" fill="#304c60"/><path d="M562.565,71.64H546.339l-2.867,7.442H528.83l18.668-42.7H561.65l18.668,42.7H565.433ZM557.319,32.9h-9.15l8.053-9.76h13.115ZM558.6,61.269l-4.149-10.737L550.3,61.269Z" fill="#304c60"/><path d="M604.594,64.929l-3.234,3.6V79.082H587.208v-42.7H601.36v15.5l14.032-15.5H631.07L613.988,55.168l17.936,23.914H615.27Z" fill="#304c60"/></svg>