<svg xmlns="http://www.w3.org/2000/svg" viewBox="0 0 666 110"><title>lblwdnKreslicí plátno 1</title><rect width="666" height="110" fill="#fff"/><path d="M66.761,36.379H87.808c14.275,0,24.1,8.113,24.1,21.351s-9.821,21.352-24.1,21.352H66.761ZM87.2,67.857c6.04,0,10.188-3.6,10.188-10.127S93.237,47.6,87.2,47.6H81.158V67.857Z" fill="#304c60"/><path d="M114.523,57.73c0-12.933,10.188-22.327,24.1-22.327s24.1,9.394,24.1,22.327-10.188,22.329-24.1,22.329S114.523,70.663,114.523,57.73Zm33.675,0c0-6.649-4.271-10.675-9.578-10.675s-9.578,4.026-9.578,10.675,4.271,10.676,9.578,10.676S148.2,64.38,148.2,57.73Z" fill="#304c60"/><path d="M205.171,79.082l-.121-19.461-9.273,15.617h-6.344L180.16,60.293V79.082H167.043v-42.7h11.835l13.91,22.754,13.543-22.754h11.835l.122,42.7Z" fill="#304c60"/><path d="M224.322,36.379h14.4v42.7h-14.4Z" fill="#304c60"/><path d="M286.85,36.379v42.7H275.015l-16.227-19.4v19.4H244.757v-42.7h11.835l16.227,19.4v-19.4Z" fill="#304c60"/><path d="M292.885,36.379h14.4v42.7h-14.4Z" fill="#304c60"/><path d="M330.706,64.929l-3.233,3.6V79.082H313.319v-42.7h14.154v15.5l14.031-15.5h15.678L340.1,55.168l17.935,23.914H341.382Z" fill="#304c60"/><path d="M371.513,73.714l7.747-9.151c2.258,2.806,4.392,4.209,6.771,4.209,2.99,0,4.637-1.83,4.637-5.307V47.238h-14.52V36.379h28.734V62.61c0,11.713-6.161,17.449-17.63,17.449C380.6,80.059,375.051,77.862,371.513,73.714Z" fill="#304c60"/><path d="M438.736,71.64H422.51l-2.867,7.442H405l18.668-42.7h14.152l18.668,42.7H441.6Zm-3.965-10.371-4.148-10.737-4.148,10.737Z" fill="#304c60"/><path d="M499.981,36.379v42.7H488.146l-16.226-19.4v19.4H457.889v-42.7h11.835l16.226,19.4v-19.4Z" fill="#304c60"/><path d="M535.115,71.64H518.889l-2.868,7.442H501.38l18.668-42.7H534.2l18.668,42.7H537.982ZM529.869,32.9h-9.15l8.052-9.76h13.116Zm1.281,28.368L527,50.532l-4.148,10.737Z" fill="#304c60"/><path d="M571.653,64.929l-3.233,3.6V79.082H554.268v-42.7H568.42v15.5l14.031-15.5H598.13L581.049,55.168l17.934,23.914H582.329Z" fill="#304c60"/></svg>