<svg xmlns="http://www.w3.org/2000/svg" viewBox="0 0 532.2227 56.918"><defs><style>.cls-1{fill:#304c60;}</style></defs><path class="cls-1" d="M3.4771,13.2334H24.5239c14.2749,0,24.0967,8.1133,24.0967,21.3516S38.7988,55.9365,24.5239,55.9365H3.4771ZM23.9136,44.7119c6.04,0,10.188-3.6,10.188-10.1269s-4.1485-10.127-10.188-10.127H17.8745V44.7119Z" transform="translate(-3.4771 0.0049)"/><path class="cls-1" d="M51.2393,34.585c0-12.9331,10.1879-22.3277,24.0971-22.3277S99.4331,21.6519,99.4331,34.585,89.2451,56.9131,75.3364,56.9131,51.2393,47.5176,51.2393,34.585Zm33.6748,0c0-6.6495-4.27-10.6758-9.5777-10.6758s-9.5781,4.0263-9.5781,10.6758,4.27,10.6757,9.5781,10.6757S84.9141,41.2344,84.9141,34.585Z" transform="translate(-3.4771 0.0049)"/><path class="cls-1" d="M141.8877,55.9365l-.1216-19.4609-9.2729,15.6172h-6.3443L116.876,37.1475v18.789H103.76V13.2334h11.8349l13.9092,22.7539,13.543-22.7539h11.8349l.1221,42.7031Z" transform="translate(-3.4771 0.0049)"/><path class="cls-1" d="M161.0386,13.2334H175.436V55.9365H161.0386Z" transform="translate(-3.4771 0.0049)"/><path class="cls-1" d="M223.5664,13.2334V55.9365h-11.835l-16.227-19.3994V55.9365H181.4731V13.2334h11.835l16.2275,19.3994V13.2334Z" transform="translate(-3.4771 0.0049)"/><path class="cls-1" d="M229.6011,13.2334h14.3974V55.9365H229.6011Z" transform="translate(-3.4771 0.0049)"/><path class="cls-1" d="M267.4224,41.7832l-3.2334,3.6V55.9365H250.0356V13.2334H264.189V28.7285L278.22,13.2334h15.6777l-17.081,18.7891,17.9355,23.914H278.0981Z" transform="translate(-3.4771 0.0049)"/><path class="cls-1" d="M308.229,50.5684l7.7471-9.1514c2.2578,2.8066,4.3926,4.21,6.7715,4.21,2.9892,0,4.6367-1.83,4.6367-5.3077V24.0923h-14.52V13.2334h28.7334V39.4648c0,11.7129-6.1611,17.4483-17.63,17.4483C317.3188,56.9131,311.7671,54.7168,308.229,50.5684Z" transform="translate(-3.4771 0.0049)"/><path class="cls-1" d="M375.4526,48.4941H359.2261l-2.8672,7.4424H341.7173l18.668-42.7031h14.1523l18.668,42.7031H378.32ZM371.4878,38.123l-4.1484-10.7368L363.1909,38.123Z" transform="translate(-3.4771 0.0049)"/><path class="cls-1" d="M436.6978,13.2334V55.9365h-11.835L408.6362,36.5371V55.9365H394.605V13.2334H406.44l16.2266,19.3994V13.2334Z" transform="translate(-3.4771 0.0049)"/><path class="cls-1" d="M471.8315,48.4941H455.605l-2.8672,7.4424H438.0962l18.668-42.7031h14.1523l18.668,42.7031H474.6987ZM466.5854,9.7559h-9.15l8.0527-9.7608H478.603Zm1.2813,28.3671-4.1484-10.7368L459.57,38.123Z" transform="translate(-3.4771 0.0049)"/><path class="cls-1" d="M508.37,41.7832l-3.2334,3.6V55.9365H490.9839V13.2334h14.1523V28.7285l14.0313-15.4951h15.6787L517.7651,32.0225,535.7,55.9365H519.0454Z" transform="translate(-3.4771 0.0049)"/></svg>