<svg xmlns="http://www.w3.org/2000/svg" viewBox="0 0 666 110"><defs><style>.cls-1{fill:#304c60;}.cls-2{fill:#fff;}</style></defs><rect class="cls-1" width="666" height="110"/><path class="cls-2" d="M33.82,36.38h21C69.14,36.38,79,44.49,79,57.73S69.14,79.08,54.87,79.08h-21ZM54.26,67.86c6,0,10.19-3.6,10.19-10.13S60.3,47.6,54.26,47.6h-6V67.86Z"/><path class="cls-2" d="M87.07,57.73c0-12.93,10.19-22.33,24.1-22.33s24.1,9.4,24.1,22.33-10.19,22.33-24.1,22.33S87.07,70.66,87.07,57.73Zm33.68,0c0-6.65-4.27-10.68-9.58-10.68s-9.58,4-9.58,10.68,4.27,10.68,9.58,10.68S120.75,64.38,120.75,57.73Z"/><path class="cls-2" d="M183.21,79.08l-.12-19.46-9.27,15.62h-6.35L158.2,60.29V79.08H145.08V36.38h11.84l13.91,22.75,13.54-22.75h11.84l.12,42.7Z"/><path class="cls-2" d="M207.85,36.38h14.4v42.7h-14.4Z"/><path class="cls-2" d="M275.87,36.38v42.7H264l-16.23-19.4v19.4h-14V36.38h11.83l16.23,19.4V36.38Z"/><path class="cls-2" d="M287.4,36.38h14.39v42.7H287.4Z"/><path class="cls-2" d="M330.71,64.93l-3.24,3.6V79.08H313.32V36.38h14.15V51.87l14-15.49h15.68L340.1,55.17,358,79.08H341.38Z"/><path class="cls-2" d="M382.49,73.71l7.75-9.15c2.26,2.81,4.39,4.21,6.77,4.21,3,0,4.64-1.83,4.64-5.31V47.24H387.13V36.38h28.73V62.61c0,11.71-6.16,17.45-17.63,17.45C391.58,80.06,386,77.86,382.49,73.71Z"/><path class="cls-2" d="M455.21,71.64H439l-2.87,7.44H421.47l18.67-42.7h14.15L473,79.08H458.07Zm-4-10.37-4.15-10.74-4.15,10.74Z"/><path class="cls-2" d="M521.94,36.38v42.7H510.11l-16.23-19.4v19.4h-14V36.38h11.83l16.23,19.4V36.38Z"/><path class="cls-2" d="M562.57,71.64H546.34l-2.87,7.44H528.83l18.67-42.7h14.15l18.67,42.7H565.43ZM557.32,32.9h-9.15l8.05-9.76h13.12Zm1.28,28.37-4.15-10.74L550.3,61.27Z"/><path class="cls-2" d="M604.59,64.93l-3.23,3.6V79.08H587.21V36.38h14.15V51.87l14-15.49h15.68L614,55.17l17.93,23.91H615.27Z"/></svg>