<svg xmlns="http://www.w3.org/2000/svg" viewBox="0 0 871.38 791.83"><defs><style>.cls-1{fill:#2c3d4f}</style></defs><path d="M339.87,105H621.16C812,105,943.22,213.41,943.22,390.28S812,675.56,621.16,675.56H339.87ZM613,525.58c80.72,0,136.16-48.09,136.16-135.3S693.73,255,613,255H532.29V525.58Z" class="cls-1" transform="translate(-71.84 -105)"/><path d="M71.84,803.52,180.08,669c31.54,41.27,61.37,61.9,94.61,61.9,41.77,0,64.78-26.91,64.78-78.05V414.14H136.62V254.45H538.06V640.24c0,172.26-86.08,256.59-246.32,256.59C198.84,896.83,121.27,864.53,71.84,803.52Z" class="cls-1" transform="translate(-71.84 -105)"/></svg>