<svg xmlns="http://www.w3.org/2000/svg" viewBox="0 0 871.38 791.83"><title>lsltndDatový zdroj 12</title><path d="M268,0H549.32C740.11,0,871.38,108.41,871.38,285.28S740.11,570.56,549.32,570.56H268ZM541.17,420.58c80.72,0,136.16-48.09,136.16-135.3S621.89,150,541.17,150H460.45V420.58Z" fill="#304c60"/><path d="M0,698.52,108.25,564c31.53,41.27,61.36,61.9,94.6,61.9,41.77,0,64.78-26.91,64.78-78.05V309.14H64.78V149.45H466.22V535.24c0,172.26-86.08,256.59-246.32,256.59C127,791.83,49.44,759.53,0,698.52Z" fill="#304c60"/></svg>