<svg xmlns="http://www.w3.org/2000/svg" viewBox="0 0 1000 1000"><title>lswdddKreslicí plátno 1</title><rect y="-1" width="1000" height="1000" fill="#2c3d4f"/><path d="M334.87,103H616.16C807,103,938.22,211.41,938.22,388.28S807,673.56,616.16,673.56H334.87ZM608,523.58c80.72,0,136.16-48.09,136.16-135.3S688.73,253,608,253H527.29V523.58Z" fill="#fff"/><path d="M66.84,801.52,175.08,667c31.54,41.27,61.37,61.9,94.61,61.9,41.77,0,64.78-26.91,64.78-78.05V412.14H131.62V252.45H533.06V638.24c0,172.26-86.08,256.59-246.32,256.59C193.84,894.83,116.27,862.53,66.84,801.52Z" fill="#fff"/></svg>